<svg width="2082px" height="2807px" viewBox="0 0 2082 2807" version="1.1">
    <title>unicorn_inc</title>
    <desc>Created with Sketch.</desc>
    <defs></defs>
    <g id="Page-1" stroke="none" strokeWidth="1" fill="none" fillRule="evenodd">
        <g id="Unicorn_Green">
            <g id="Page-1">
                <polygon id="Fill-1" fill="#13361D" points="1808.749 1963.42 1757.452 1933.682 1815.439 1903.945"></polygon>
                <polygon id="Fill-2" fill="#1C4823" points="1757.4521 1933.6817 1718.4211 1874.9547 1815.4391 1903.9457"></polygon>
                <polygon id="Fill-3" fill="#145027" points="1815.4395 1903.9454 1822.5005 1867.8924 1718.4205 1874.9554"></polygon>
                <polygon id="Fill-4" fill="#266834" points="1718.4209 1874.9552 1741.4679 1838.5272 1822.4999 1867.8932"></polygon>
                <polygon id="Fill-5" fill="#238D45" points="1822.5 1867.8927 1822.5 1779.0487 1786.445 1854.8267"></polygon>
                <polygon id="Fill-6" fill="#399F62" points="1741.4678 1838.5274 1761.1668 1825.5114 1786.4458 1854.8264"></polygon>
                <polygon id="Fill-7" fill="#399E66" points="1761.167 1825.5118 1759.31 1776.8188 1786.445 1854.8258"></polygon>
                <polygon id="Fill-8" fill="#57B947" points="1786.4453 1854.8263 1822.5003 1779.0493 1759.3093 1776.8183"></polygon>
                <polygon id="Fill-9" fill="#122E1A" points="2025.6407 1812.5061 2081.3977 1812.5061 2010.5867 1752.8481"></polygon>
                <polygon id="Fill-10" fill="#225429" points="2010.5865 1752.8479 2081.3975 1812.5059 2071.3595 1722.7389"></polygon>
                <polygon id="Fill-11" fill="#1B3C1B" points="2025.6406 1812.5059 1956.5026 1752.8479 2010.5866 1752.8479"></polygon>
                <polygon id="Fill-12" fill="#366C34" points="1956.5029 1752.8477 1964.3089 1690.4007 2010.5869 1752.8477"></polygon>
                <polygon id="Fill-13" fill="#1A3C1B" points="2071.3604 1722.7384 1964.3084 1690.4004 2010.5874 1752.8474"></polygon>
                <polygon id="Fill-14" fill="#259947" points="2071.3604 1722.7384 2045.9924 1621.2614 2022.7414 1708.0504"></polygon>
                <polygon id="Fill-15" fill="#329755" points="1964.3086 1690.4005 1991.0716 1667.5395 2022.7416 1708.0505"></polygon>
                <polygon id="Fill-16" fill="#71B451" points="1991.0713 1667.5391 1987.1693 1633.5271 2022.7413 1708.0511"></polygon>
                <polygon id="Fill-17" fill="#359C63" points="2045.9922 1621.2618 1987.1692 1633.5278 2022.7412 1708.0508"></polygon>
                <polygon id="Fill-18" fill="#3CAA48" points="1987.1689 1633.5274 1949.8119 1594.4984 1960.4049 1549.3364"></polygon>
                <polygon id="Fill-19" fill="#4AB648" points="2045.9922 1621.2618 2045.9922 1563.8318 1987.1692 1633.5278"></polygon>
                <polygon id="Fill-20" fill="#38AC49" points="1960.4053 1549.336 2045.9923 1563.832 1987.1693 1633.527"></polygon>
                <polygon id="Fill-21" fill="#41B659" points="1822.5 1779.0489 1759.31 1776.8189 1736.264 1735.0039"></polygon>
                <polygon id="Fill-22" fill="#29743D" points="1822.5 1779.0489 1831.05 1714.9319 1779.382 1757.0279"></polygon>
                <polygon id="Fill-23" fill="#49AE48" points="1831.0498 1714.9317 1736.2638 1735.0037 1779.3818 1757.0277"></polygon>
                <polygon id="Fill-24" fill="#1D9546" points="1831.0498 1714.9317 1805.2158 1616.2427 1801.8628 1721.1157"></polygon>
                <polygon id="Fill-25" fill="#73C061" points="1736.2637 1735.004 1741.4677 1661.406 1801.8637 1721.115"></polygon>
                <polygon id="Fill-26" fill="#59B947" points="1741.4678 1661.4063 1805.2158 1616.2423 1801.8638 1721.1153"></polygon>
                <polygon id="Fill-27" fill="#46B872" points="1741.4678 1661.4063 1718.4208 1516.4393 1786.4458 1629.5413"></polygon>
                <polygon id="Fill-28" fill="#2D874B" points="1805.2158 1616.2423 1795.3658 1501.3853 1786.4448 1629.5413"></polygon>
                <polygon id="Fill-29" fill="#51C0AD" points="2045.9922 1563.8321 1980.4772 1440.0531 1960.4052 1549.3361"></polygon>
                <polygon id="Fill-30" fill="#54813A" points="1960.4053 1549.336 1900.1883 1416.076 1980.4773 1440.053"></polygon>
                <polygon id="Fill-31" fill="#36AD52" points="1795.3662 1501.3848 1718.4212 1516.4398 1786.4452 1629.5408"></polygon>
                <polygon id="Fill-32" fill="#2D8D4E" points="1795.3662 1501.3848 1795.8312 1453.9918 1718.4212 1516.4398"></polygon>
                <polygon id="Fill-33" fill="#34A348" points="1795.8311 1453.9923 1747.4151 1396.5653 1718.4211 1516.4393"></polygon>
                <polygon id="Fill-34" fill="#1E9B48" points="1980.4775 1440.0528 1952.5995 1341.9238 1900.1885 1416.0758"></polygon>
                <polygon id="Fill-35" fill="#259947" points="1900.1885 1416.0762 1900.1885 1282.8222 1952.5995 1341.9242"></polygon>
                <polygon id="Fill-36" fill="#9BCF88" points="1747.415 1396.565 1669.356 1362.553 1718.421 1516.44"></polygon>
                <polygon id="Fill-37" fill="#219947" points="1900.1885 1282.8219 1809.8625 1269.4399 1900.1885 1416.0759"></polygon>
                <polygon id="Fill-38" fill="#CFE9DB" points="1718.4209 1516.4395 1662.6649 1476.8515 1669.3569 1362.5535"></polygon>
                <polygon id="Fill-39" fill="#2D6B35" points="1876.5098 1377.6387 1820.4558 1369.8017 1809.8628 1269.4397"></polygon>
                <polygon id="Fill-40" fill="#134834" points="1809.8623 1269.44 1687.7553 1241.562 1820.4563 1369.802"></polygon>
                <polygon id="Fill-41" fill="#143B1C" points="1820.4561 1369.8018 1701.4951 1376.5568 1687.7551 1241.5618"></polygon>
                <polygon id="Fill-42" fill="#70AA9F" points="1662.665 1476.8516 1459.153 1447.8576 1669.356 1362.5536"></polygon>
                <polygon id="Fill-43" fill="#1F451F" points="1687.7549 1241.5621 1608.0239 1186.9201 1701.4949 1376.5571"></polygon>
                <polygon id="Fill-44" fill="#4DBD99" points="1669.3564 1362.5533 1464.1704 1251.0403 1459.1534 1447.8573"></polygon>
                <polygon id="Fill-45" fill="#193B1B" points="1608.0234 1186.9205 1566.7634 1306.7965 1669.3564 1362.5535"></polygon>
                <polygon id="Fill-46" fill="#132314" points="1701.4951 1376.5572 1669.3561 1362.5532 1608.0231 1186.9202"></polygon>
                <polygon id="Fill-47" fill="#113721" points="1464.1709 1251.0406 1608.0239 1186.9206 1566.7639 1306.7966"></polygon>
                <polygon id="Fill-48" fill="#164926" points="1464.1709 1251.0406 1536.0969 1070.3896 1608.0239 1186.9206"></polygon>
                <polygon id="Fill-49" fill="#47B866" points="1459.1533 1447.8575 1295.7863 1439.4945 1464.1713 1251.0405"></polygon>
                <polygon id="Fill-50" fill="#3BA247" points="1295.7861 1439.4942 1187.6191 1312.3722 1464.1711 1251.0402"></polygon>
                <polygon id="Fill-51" fill="#2A8340" points="1608.0234 1186.9205 1622.5204 1066.4855 1536.0964 1070.3895"></polygon>
                <polygon id="Fill-52" fill="#2F6F36" points="1622.5205 1066.4859 1600.2175 974.4879 1536.0965 1070.3889"></polygon>
                <polygon id="Fill-53" fill="#29684E" points="1600.2178 974.4879 1482.5718 850.1509 1536.0968 1070.3889"></polygon>
                <polygon id="Fill-54" fill="#266633" points="1464.1709 1251.0406 1325.8949 1063.6986 1536.0969 1070.3896"></polygon>
                <polygon id="Fill-55" fill="#1D4922" points="1459.1533 1447.8575 1295.7863 1507.5175 1295.7863 1439.4945"></polygon>
                <polygon id="Fill-56" fill="#132314" points="1459.1533 1447.8575 1291.8823 1614.0135 1295.7863 1507.5175"></polygon>
                <polygon id="Fill-57" fill="#1E4620" points="1291.8828 1614.0137 1124.0558 1734.4477 1043.2078 1652.4847"></polygon>
                <polygon id="Fill-58" fill="#406932" points="1295.7861 1507.5177 1043.2081 1652.4847 1291.8831 1614.0137"></polygon>
                <polygon id="Fill-59" fill="#25673B" points="1187.6191 1312.3726 1295.7861 1507.5176 1295.7861 1439.4946"></polygon>
                <polygon id="Fill-60" fill="#196131" points="1043.208 1652.4845 1187.619 1312.3725 1295.786 1507.5175"></polygon>
                <polygon id="Fill-61" fill="#153A1C" points="1124.0557 1734.4473 950.0957 1815.8513 1043.2077 1652.4843"></polygon>
                <polygon id="Fill-62" fill="#132314" points="950.0957 1815.8516 734.8747 1752.2886 1043.2077 1652.4846"></polygon>
                <polygon id="Fill-63" fill="#113422" points="950.0957 1815.8516 970.1677 1960.2616 734.8747 1752.2886"></polygon>
                <polygon id="Fill-64" fill="#183B1B" points="970.168 1960.2618 868.09 2275.3228 734.875 1752.2888"></polygon>
                <polygon id="Fill-65" fill="#174922" points="868.0898 2275.3223 803.6968 2360.4633 725.5818 2202.0973"></polygon>
                <polygon id="Fill-66" fill="#1B4520" points="803.6973 2360.4629 826.6873 2521.0569 771.6743 2460.8399"></polygon>
                <polygon id="Fill-67" fill="#48B648" points="725.582 2202.0977 771.674 2460.8397 803.697 2360.4627"></polygon>
                <polygon id="Fill-68" fill="#3B6E35" points="771.6738 2460.8399 691.0978 2435.5629 725.5818 2202.0979"></polygon>
                <polygon id="Fill-69" fill="#84BC40" points="691.0977 2435.5625 789.5167 2612.1425 771.6737 2460.8395"></polygon>
                <polygon id="Fill-70" fill="#133523" points="826.6875 2521.0567 882.4445 2618.0897 789.5165 2612.1427"></polygon>
                <polygon id="Fill-71" fill="#194D25" points="826.6875 2521.0567 771.6735 2460.8397 789.5165 2612.1427"></polygon>
                <polygon id="Fill-72" fill="#366C34" points="789.5166 2612.1426 771.6736 2676.8226 842.2986 2710.2736"></polygon>
                <polygon id="Fill-73" fill="#1C4823" points="842.2988 2710.2735 882.4448 2618.0895 789.5168 2612.1425"></polygon>
                <polygon id="Fill-74" fill="#1B4520" points="842.2988 2710.2735 964.2188 2699.8675 882.4448 2618.0895"></polygon>
                <polygon id="Fill-75" fill="#5BB946" points="1187.6191 1312.3726 1325.8941 1063.6986 1464.1711 1251.0406"></polygon>
                <polygon id="Fill-76" fill="#479E49" points="1325.8945 1063.6983 1482.5715 850.1503 1536.0965 1070.3893"></polygon>
                <polygon id="Fill-77" fill="#1D553A" points="1482.5713 850.1505 1422.1673 663.1845 1440.8103 907.0685"></polygon>
                <polygon id="Fill-78" fill="#104249" points="1422.167 663.1846 1394.661 551.6706 1345.595 546.4676"></polygon>
                <polygon id="Fill-79" fill="#3A9143" points="1440.8105 907.0684 1345.5945 546.4674 1422.1665 663.1844"></polygon>
                <polygon id="Fill-80" fill="#A3CDD4" points="1325.8945 1063.6983 1234.8265 807.4083 1440.8105 907.0683"></polygon>
                <polygon id="Fill-81" fill="#1E9B98" points="1234.8262 807.4083 1345.5952 546.4673 1440.8102 907.0683"></polygon>
                <polygon id="Fill-82" fill="#4CA257" points="1234.8262 807.4083 1170.1482 726.7683 1207.3182 435.6983"></polygon>
                <polygon id="Fill-83" fill="#78C694" points="1170.1484 726.7681 1059.3784 837.8891 1053.4294 689.9481"></polygon>
                <polygon id="Fill-84" fill="#A4DADA" points="1053.4297 689.9478 1089.8587 537.5468 1170.1487 726.7678"></polygon>
                <polygon id="Fill-85" fill="#D2E5D7" points="1089.8584 537.5465 1151.9334 399.2715 1170.1484 726.7685"></polygon>
                <polygon id="Fill-86" fill="#AACDD0" points="1151.9336 399.2711 1207.3186 435.6981 1170.1486 726.7681"></polygon>
                <polygon id="Fill-87" fill="#54BB79" points="1234.8262 807.4083 1207.3182 435.6983 1345.5952 546.4673"></polygon>
                <polygon id="Fill-88" fill="#7FC3C5" points="1151.9336 399.2711 1288.3516 226.7971 1207.3186 435.6981"></polygon>
                <polygon id="Fill-89" fill="#5AB946" points="1288.3516 226.7974 1267.5376 130.0534 1342.6226 210.2144"></polygon>
                <polygon id="Fill-90" fill="#5BAE46" points="1342.6221 210.2144 1377.5621 125.3144 1383.1391 219.3574"></polygon>
                <polygon id="Fill-91" fill="#46AF48" points="1383.1387 219.3575 1342.6217 293.7045 1458.9677 241.6595"></polygon>
                <polygon id="Fill-92" fill="#249345" points="1342.6221 293.7047 1342.6221 210.2147 1383.1391 219.3577"></polygon>
                <polygon id="Fill-93" fill="#CFEBEE" points="1207.3184 435.6978 1309.8844 370.2778 1345.5944 546.4678"></polygon>
                <polygon id="Fill-94" fill="#2C9E4B" points="1288.3516 226.7974 1342.6226 293.7044 1342.6226 210.2144"></polygon>
                <polygon id="Fill-95" fill="#B8DDB9" points="1309.8848 370.2779 1253.4518 316.7669 1207.3188 435.6979"></polygon>
                <polygon id="Fill-96" fill="#55B953" points="1342.6221 293.7047 1253.4521 316.7667 1288.3511 226.7977"></polygon>
                <polygon id="Fill-97" fill="#74C07E" points="1342.6221 293.7047 1309.8851 370.2777 1253.4521 316.7667"></polygon>
                <polygon id="Fill-98" fill="#2B8E66" points="1458.9678 241.6597 1539.1638 307.8307 1342.6218 293.7047"></polygon>
                <polygon id="Fill-99" fill="#0F3D27" points="1415.5811 298.9488 1393.2031 328.6458 1422.1671 355.4098"></polygon>
                <polygon id="Fill-100" fill="#18361A" points="1422.167 355.4097 1489.075 331.9917 1415.581 298.9487"></polygon>
                <polygon id="Fill-101" fill="#3EB149" points="1393.2031 328.6461 1342.6221 293.7051 1415.5811 298.9491"></polygon>
                <polygon id="Fill-102" fill="#258340" points="1489.0752 331.9918 1539.1642 307.8308 1415.5812 298.9488"></polygon>
                <polygon id="Fill-103" fill="#249446" points="1539.1641 307.8306 1572.5561 370.2776 1489.0751 331.9916"></polygon>
                <polygon id="Fill-104" fill="#276231" points="1572.5557 370.2779 1422.1667 355.4099 1489.0757 331.9919"></polygon>
                <polygon id="Fill-105" fill="#38B449" points="1393.2031 328.6461 1309.8851 370.2781 1342.6221 293.7051"></polygon>
                <polygon id="Fill-106" fill="#B1DAAF" points="1572.5557 370.2779 1680.8787 458.3729 1519.5557 458.3729"></polygon>
                <polygon id="Fill-107" fill="#439644" points="1680.8789 458.3726 1719.5359 494.4226 1694.2599 510.0346"></polygon>
                <polygon id="Fill-108" fill="#386631" points="1719.5361 494.4224 1715.0761 581.4034 1694.2601 510.0344"></polygon>
                <polygon id="Fill-109" fill="#1E4F26" points="1715.0762 581.4034 1689.8002 604.8254 1634.9972 490.7064"></polygon>
                <polygon id="Fill-110" fill="#215A34" points="1634.9971 490.7061 1694.2601 510.0351 1715.0761 581.4031"></polygon>
                <polygon id="Fill-111" fill="#419D45" points="1634.9971 490.7061 1680.8791 458.3731 1694.2601 510.0351"></polygon>
                <polygon id="Fill-112" fill="#40A167" points="1634.9971 490.7061 1519.5561 458.3731 1680.8791 458.3731"></polygon>
                <polygon id="Fill-113" fill="#163D1D" points="1689.7998 604.8253 1639.9908 621.5533 1657.6678 537.9133"></polygon>
                <polygon id="Fill-114" fill="#1B522A" points="1639.9912 621.5533 1593.1552 604.8253 1657.6682 537.9133"></polygon>
                <polygon id="Fill-115" fill="#26A248" points="1593.1553 604.8253 1585.7203 581.4033 1657.6683 537.9133"></polygon>
                <polygon id="Fill-116" fill="#38A479" points="1585.7207 581.4034 1460.5467 551.6664 1634.9967 490.7064"></polygon>
                <polygon id="Fill-117" fill="#348B42" points="1657.668 537.9132 1634.997 490.7062 1585.721 581.4032"></polygon>
                <polygon id="Fill-118" fill="#34A170" points="1460.5469 551.6666 1394.6609 551.6706 1444.4709 458.3726"></polygon>
                <polygon id="Fill-119" fill="#A4D6B0" points="1394.6611 551.671 1309.8851 370.278 1345.5951 546.467"></polygon>
                <polygon id="Fill-120" fill="#9CC981" points="1444.4707 458.3726 1309.8847 370.2776 1394.6607 551.6706"></polygon>
                <polygon id="Fill-121" fill="#8AA43C" points="1422.167 355.4097 1309.885 370.2777 1393.203 328.6457"></polygon>
                <polygon id="Fill-122" fill="#389A46" points="1519.5557 458.3726 1460.5467 551.6666 1634.9967 490.7056"></polygon>
                <polygon id="Fill-123" fill="#66B144" points="1519.5557 458.3726 1422.1667 355.4096 1572.5557 370.2776"></polygon>
                <polygon id="Fill-124" fill="#44AC72" points="1460.5469 551.6666 1444.4709 458.3726 1519.5559 458.3726"></polygon>
                <polygon id="Fill-125" fill="#56BA5B" points="1444.4707 458.3726 1422.1667 355.4096 1519.5557 458.3726"></polygon>
                <polygon id="Fill-126" fill="#48AB72" points="1444.4707 458.3726 1309.8847 370.2776 1422.1667 355.4096"></polygon>
                <polygon id="Fill-127" fill="#B9549F" points="1288.3516 226.7974 1102.3116 367.2984 1151.9336 399.2714"></polygon>
                <polygon id="Fill-128" fill="#CE9FC9" points="1102.3115 367.2984 943.9625 445.3574 939.5015 513.3804"></polygon>
                <polygon id="Fill-129" fill="#EE4183" points="1151.9336 399.2711 1089.8586 537.5461 1102.3116 367.2981"></polygon>
                <polygon id="Fill-130" fill="#C779B2" points="1089.8584 537.5465 939.5024 513.3805 1102.3114 367.2985"></polygon>
                <polygon id="Fill-131" fill="#DDB6D5" points="1089.8584 537.5465 1053.4294 689.9475 939.5024 513.3805"></polygon>
                <polygon id="Fill-132" fill="#CD84B8" points="943.9629 445.357 867.5759 614.857 939.5019 513.38"></polygon>
                <polygon id="Fill-133" fill="#EC2A91" points="1053.4297 689.9478 939.5017 513.3808 867.5757 614.8578"></polygon>
                <polygon id="Fill-134" fill="#C35FA4" points="867.5762 614.8575 890.4352 807.4085 967.8892 655.3875"></polygon>
                <polygon id="Fill-135" fill="#CC4C9B" points="967.8887 655.3873 921.1027 811.6783 1053.4297 689.9483"></polygon>
                <polygon id="Fill-136" fill="#68C07D" points="1234.8262 807.4083 1170.1482 726.7683 1059.3792 837.8883"></polygon>
                <polygon id="Fill-137" fill="#824E9F" points="1059.3789 837.8887 1053.4299 689.9477 921.1029 811.6787"></polygon>
                <polygon id="Fill-138" fill="#C04799" points="1059.3789 837.8887 960.5029 1060.3527 1004.9979 827.5807"></polygon>
                <polygon id="Fill-139" fill="#D290BF" points="1004.998 827.5806 960.503 1060.3526 921.102 811.6786"></polygon>
                <polygon id="Fill-140" fill="#86C883" points="1234.8262 807.4083 1325.8942 1063.6983 1059.3792 837.8883"></polygon>
                <polygon id="Fill-141" fill="#B8DEBD" points="1325.8945 1063.6983 1059.3785 837.8883 960.5025 1060.3533"></polygon>
                <polygon id="Fill-142" fill="#74C167" points="1325.8945 1063.6983 1187.6195 1312.3723 960.5025 1060.3533"></polygon>
                <polygon id="Fill-143" fill="#E8F4F1" points="960.5029 1060.3531 926.6779 1181.9021 1187.6189 1312.3731"></polygon>
                <polygon id="Fill-144" fill="#D0ECF3" points="926.6777 1181.9024 773.9047 1339.1354 1043.2077 1652.4844"></polygon>
                <polygon id="Fill-145" fill="#49A995" points="1187.6191 1312.3726 926.6781 1181.9026 1043.2081 1652.4846"></polygon>
                <polygon id="Fill-146" fill="#D7ADD1" points="1383.1385 219.3579 1458.9675 241.6599 1589.6115 0.9989"></polygon>
                <polygon id="Fill-147" fill="#CFE9DB" points="1435.2345 234.6799 1458.9675 241.6599 1589.6115 0.9989"></polygon>
                <polygon id="Fill-148" fill="#74C051" points="1383.1385 219.3579 1403.7055 225.4059 1589.6115 0.9989"></polygon>
                <polygon id="Fill-149" fill="#E1F0DF" points="773.9043 1339.1353 564.2593 1443.3983 573.1803 1605.6503"></polygon>
                <polygon id="Fill-150" fill="#5BB846" points="1043.208 1652.4845 734.875 1752.2895 573.181 1605.6505"></polygon>
                <polygon id="Fill-151" fill="#8BCBD9" points="1043.208 1652.4845 773.904 1339.1355 573.181 1605.6505"></polygon>
                <polygon id="Fill-152" fill="#B7DCB3" points="564.2598 1443.3985 356.8438 1625.7225 573.1808 1605.6505"></polygon>
                <polygon id="Fill-153" fill="#8CCB93" points="356.8437 1625.7227 328.9667 1878.8577 573.1807 1605.6507"></polygon>
                <polygon id="Fill-154" fill="#111E16" points="868.0898 2275.3223 725.5818 2202.0973 734.8748 1752.2893"></polygon>
                <polygon id="Fill-155" fill="#10361F" points="646.2217 2061.1817 725.5817 2202.0977 734.8747 1752.2887"></polygon>
                <polygon id="Fill-156" fill="#299E47" points="646.2217 2061.1817 573.1807 1605.6507 734.8747 1752.2887"></polygon>
                <polygon id="Fill-157" fill="#39A45D" points="328.9668 1878.8575 646.2218 2061.1815 573.1808 1605.6505"></polygon>
                <polygon id="Fill-158" fill="#5EBB54" points="328.9668 1878.8575 400.3338 2082.8825 589.4988 2028.5845"></polygon>
                <polygon id="Fill-159" fill="#17371A" points="646.2217 2061.1817 589.4987 2100.1677 589.4987 2028.5837"></polygon>
                <polygon id="Fill-160" fill="#132314" points="589.499 2100.168 481.183 2296.51 589.499 2028.584"></polygon>
                <polygon id="Fill-161" fill="#193A1B" points="481.1826 2296.5098 408.6996 2413.0588 408.6996 2354.5138"></polygon>
                <polygon id="Fill-162" fill="#496931" points="408.6992 2354.5137 589.4992 2028.5837 481.1822 2296.5097"></polygon>
                <polygon id="Fill-163" fill="#A9DCDB" points="400.334 2082.8829 408.699 2354.5139 589.499 2028.5839"></polygon>
                <polygon id="Fill-164" fill="#8EB947" points="400.334 2082.8829 303.791 2374.0279 408.699 2354.5139"></polygon>
                <polygon id="Fill-165" fill="#54AA46" points="303.791 2374.0274 313.913 2513.9904 408.699 2354.5134"></polygon>
                <polygon id="Fill-166" fill="#66BC45" points="408.6992 2413.0586 313.9132 2513.9906 408.6992 2354.5136"></polygon>
                <polygon id="Fill-167" fill="#269044" points="408.6992 2413.0586 400.3342 2516.5976 313.9132 2513.9906"></polygon>
                <polygon id="Fill-168" fill="#5EBA46" points="313.9131 2513.9903 346.2521 2636.6683 400.3341 2516.5973"></polygon>
                <polygon id="Fill-169" fill="#69B744" points="400.334 2516.5977 431.001 2680.7167 346.252 2636.6677"></polygon>
                <polygon id="Fill-170" fill="#266834" points="346.252 2636.668 366.324 2747.625 431.001 2680.717"></polygon>
                <polygon id="Fill-171" fill="#1B4520" points="431.001 2680.7169 535.309 2798.4919 366.324 2747.6249"></polygon>
                <polygon id="Fill-172" fill="#174922" points="338.445 2806.17 535.308 2798.492 366.324 2747.625"></polygon>
                <polygon id="Fill-173" fill="#1C4823" points="338.445 2806.17 366.324 2747.625 346.252 2636.668"></polygon>
                <polygon id="Fill-174" fill="#CE9FC9" points="356.8437 1625.7227 231.9487 1569.4087 74.3427 1647.4687"></polygon>
                <polygon id="Fill-175" fill="#C779B2" points="0 1752.2889 40.889 1916.5879 74.343 1647.4689"></polygon>
                <polygon id="Fill-176" fill="#DDB6D5" points="356.8437 1625.7227 344.9027 1734.1697 259.4547 1824.4027"></polygon>
                <polygon id="Fill-177" fill="#D290BF" points="356.8437 1625.7227 205.0387 1637.4087 259.4547 1824.4027"></polygon>
                <polygon id="Fill-178" fill="#EC2A91" points="259.4551 1824.4024 74.3431 1647.4684 205.0391 1637.4084"></polygon>
                <polygon id="Fill-179" fill="#C04799" points="344.9023 1734.17 328.9663 1878.857 259.4553 1824.402"></polygon>
                <polygon id="Fill-180" fill="#C693C2" points="400.334 2082.8829 215.594 1953.7599 259.455 1824.4029"></polygon>
                <polygon id="Fill-181" fill="#824E9F" points="328.9668 1878.8575 400.3338 2082.8825 259.4548 1824.4025"></polygon>
                <polygon id="Fill-182" fill="#CC4C9B" points="215.5938 1953.7598 74.3428 1647.4688 259.4548 1824.4028"></polygon>
                <polygon id="Fill-183" fill="#CD84B8" points="215.5938 1953.7598 40.8888 1916.5878 74.3428 1647.4688"></polygon>
                <polygon id="Fill-184" fill="#C779B2" points="40.8887 1916.588 240.1267 2156.719 215.5937 1953.76"></polygon>
                <polygon id="Fill-185" fill="#A2479A" points="400.334 2082.8829 240.127 2156.7189 215.594 1953.7599"></polygon>
                <polygon id="Fill-186" fill="#894F9F" points="240.127 2156.7188 219.31 2235.5258 400.334 2082.8828"></polygon>
                <polygon id="Fill-187" fill="#C04799" points="400.334 2082.8829 337.094 2250.5159 281.014 2246.6759"></polygon>
            </g>
        </g>
    </g>
</svg>
